REM MD5 287f1751732dbfc36d6b3cf7bd766ee3
FILE "Interactive CD Sampler Disk Volume 5 (USA).bin" BINARY
  TRACK 01 MODE2/2352
    INDEX 01 00:00:00
  TRACK 02 AUDIO
    INDEX 00 40:17:47
    INDEX 01 40:19:47
  TRACK 03 AUDIO
    INDEX 00 42:14:47
    INDEX 01 42:16:47
  TRACK 04 AUDIO
    INDEX 00 45:15:34
    INDEX 01 45:17:34
  TRACK 05 AUDIO
    INDEX 00 45:58:34
    INDEX 01 46:00:34
  TRACK 06 AUDIO
    INDEX 00 47:04:37
    INDEX 01 47:06:37
REM LEADOUT 48:05:33
